<svg width="1080" height="1080" viewBox="0 0 1080 1080" fill="none" xmlns="http://www.w3.org/2000/svg">
    <defs>
        <radialGradient id="grad-bg" cx="50%" cy="50%" r="50%" fx="50%" fy="50%">
            <stop offset="0%" style="stop-color:#fdf7f9;stop-opacity:1" />
            <stop offset="100%" style="stop-color:#EAD9F2;stop-opacity:1" />
        </radialGradient>
        <filter id="shadow" x="-20%" y="-20%" width="140%" height="140%">
            <feDropShadow dx="0" dy="10" stdDeviation="15" flood-color="#D2B4DE" flood-opacity="0.3"/>
        </filter>
    </defs>
    
    <!-- Background -->
    <rect width="1080" height="1080" fill="url(#grad-bg)"/>

    <!-- Top Text & Logo -->
    <g transform="translate(540, 150)">
        <path d="M-2.52208 -45.166C-2.09115 -45.628 -1.52352 -46.1211 -1.0232 -46.4776C-0.522881 -46.834 -0.054929 -47.0226 0.512699 -47.0101C1.08033 -46.9976 1.55928 -46.7839 2.06212 -46.439C2.56496 -46.094 3.13259 -45.5898 3.56352 -45.1278L3.58915 -45.099C3.9015 -44.7554 4.16012 -44.3854 4.3414 -43.984C4.52269 -43.5826 4.6212 -43.1499 4.6294 -42.7095C4.6376 -42.2691 4.5552 -41.832 4.38795 -41.4239C4.2207 -41.0158 3.9734 -40.6458 3.66105 -40.3347L-2.52208 -45.166ZM-4.0673 -39.8459C-3.60195 -39.4011 -3.07172 -38.9051 -2.66855 -38.307C-2.26538 -37.7088 -2.0163 -37.0084 -1.94825 -36.2944C-1.8802 -35.5804 -2.001 -34.8698 -2.2926 -34.2263C-2.5842 -33.5828 -3.03615 -33.028 -3.59685 -32.6247L-4.0673 -39.8459ZM-4.99225 -31.7405L-12.0792 -37.265C-12.555 -36.8524 -12.982 -36.3575 -13.3323 -35.7803C-13.6826 -35.2031 -13.948 -34.5513 -14.1143 -33.85C-14.2806 -33.1487 -14.3435 -32.4111 -14.2982 -31.6853C-14.2529 -30.9595 -14.0998 -30.254 -13.847 -29.5972L-4.99225 -31.7405ZM-13.6493 -28.694C-13.253 -28.1637 -12.7663 -27.5686 -12.3995 -26.8681C-12.0327 -26.1676 -11.801 -25.3807 -11.7258 -24.575C-11.6506 -23.7693 -11.7348 -22.964 -11.9702 -22.2039C-12.2056 -21.4438 -12.5842 -20.7495 -13.076 -20.1743L-13.6493 -28.694ZM-14.008 -19.1666L-22.375 -21.2858C-22.7836 -20.728 -23.1209 -20.088 -23.3643 -19.3986C-23.6077 -18.7092 -23.751 -17.9815 -23.7844 -17.2393C-23.8178 -16.4971 -23.7405 -15.7554 -23.5573 -15.0449C-23.3741 -14.3344 -23.0888 -13.666 -22.715 -13.076L-14.008 -19.1666ZM-22.478 -12.0715C-21.8415 -11.7086 -21.1255 -11.2681 -20.551 -10.686C-19.9765 -10.1039 -19.571 -9.39965 -19.373 -8.62595C-19.175 -7.85225 -19.1925 -7.0385 -19.423 -6.2735C-19.6535 -5.5085 -20.0895 -4.8216 -20.678 -4.2995L-22.478 -12.0715ZM-20.1743 -3.56352C-20.7495 -3.07172 -21.4438 -2.69312 -22.2039 -2.45772C-22.964 -2.22232 -23.7693 -2.13812 -24.575 -2.21332C-25.3807 -2.28852 -26.1676 -2.52022 -26.8681 -2.88702C-27.5686 -3.25382 -28.1637 -3.74052 -28.694 -4.33672L-20.1743 -3.56352ZM-29.5972 -13.847C-30.254 -14.0998 -30.9595 -14.2529 -31.6853 -14.2982C-32.4111 -14.3435 -33.1487 -14.2806 -33.85 -14.1143C-34.5513 -13.948 -35.2031 -13.6826 -35.7803 -13.3323C-36.3575 -12.982 -36.8524 -12.555 -37.265 -12.0792L-29.5972 -13.847ZM-37.265 -22.375C-36.8524 -22.8508 -36.3575 -23.2788 -35.7803 -23.6291C-35.2031 -23.9794 -34.5513 -24.2448 -33.85 -24.4111C-33.1487 -24.5774 -32.4111 -24.6403 -31.6853 -24.595C-30.9595 -24.5497 -30.254 -24.3966 -29.5972 -24.1438L-37.265 -22.375ZM-28.694 -33.5635C-28.1637 -34.1597 -27.5686 -34.6464 -26.8681 -35.0132C-26.1676 -35.38 -25.3807 -35.6117 -24.575 -35.6869C-23.7693 -35.7621 -22.964 -35.6779 -22.2039 -35.4425C-21.4438 -35.2071 -20.7495 -34.8285 -20.1743 -34.3367L-28.694 -33.5635ZM-20.678 -40.3347C-20.0895 -40.8567 -19.6535 -41.5436 -19.423 -42.3086C-19.1925 -43.0736 -19.175 -43.8874 -19.373 -44.6611C-19.571 -45.4348 -19.9765 -46.139 -20.551 -46.7211C-21.1255 -47.3032 -21.8415 -47.7437 -22.478 -48.1066L-20.678 -40.3347ZM-13.076 -45.099C-12.5842 -45.5742 -12.2056 -46.2685 -11.9702 -47.0286C-11.7348 -47.7887 -11.6506 -48.594 -11.7258 -49.3997C-11.801 -50.2054 -12.0327 -50.9923 -12.3995 -51.6928C-12.7663 -52.3933 -13.253 -52.9884 -13.6493 -53.5187L-13.076 -45.099ZM-4.99225 -42.8937L-4.99225 -52.7135C-5.65895 -53.0663 -6.36442 -53.2194 -7.09025 -53.1641C-7.81608 -53.1088 -8.52042 -52.8434 -9.141 -52.3888C-9.76158 -51.9342 -10.284 -51.304 -10.6695 -50.554C-11.055 -49.804 -11.293 -48.9613 -11.3655 -48.1066L-4.99225 -42.8937ZM-0.512699 -2.98992e-05C-0.342556 -2.98992e-05 -0.179831 0.0463701 -0.0425781 0.13397C0.0946748 0.22157 0.221226 0.34685 0.322699 0.49627C0.424173 0.64569 0.497556 0.81498 0.536589 0.99277C0.575622 1.17056 0.579106 1.35328 0.546949 1.52972L-0.512699 -2.98992e-05ZM0.512699 2.45772C1.27279 2.22232 1.96709 1.84372 2.54159 1.35192C3.11609 0.86012 3.54809 0.26502 3.79234 -0.425781C4.03659 -1.11658 4.08359 -1.87978 3.92619 -2.63938C3.76879 -3.39898 3.41439 -4.12848 2.89319 -4.75548L0.512699 2.45772ZM4.33672 -20.1743C3.74052 -20.7048 3.25382 -21.3999 2.88702 -22.1004C2.52022 -22.8009 2.28852 -23.5878 2.21332 -24.3935C2.13812 -25.1992 2.22232 -26.0045 2.45772 -26.7646C2.69312 -27.5247 3.07172 -28.219 3.56352 -28.7858L4.33672 -20.1743ZM13.847 -29.5972C14.0998 -30.254 14.2529 -30.9595 14.2982 -31.6853C14.3435 -32.4111 14.2806 -33.1487 14.1143 -33.85C13.948 -34.5513 13.6826 -35.2031 13.3323 -35.7803C12.982 -36.3575 12.555 -36.8524 12.0792 -37.265L13.847 -29.5972ZM12.0792 -12.0792C12.555 -12.555 12.982 -13.05 13.3323 -13.6272C13.6826 -14.2044 13.948 -14.8562 14.1143 -15.5575C14.2806 -16.2588 14.3435 -16.9964 14.2982 -17.7222C14.2529 -18.448 14.0998 -19.1535 13.847 -19.8103L12.0792 -12.0792ZM4.33672 -28.7858C3.74052 -28.2553 3.25382 -27.5602 2.88702 -26.7597C2.52022 -25.9592 2.28852 -25.0723 2.21332 -24.1666C2.13812 -23.2609 2.22232 -22.3556 2.45772 -21.4955C2.69312 -20.6354 3.07172 -19.8411 3.56352 -19.1743L4.33672 -28.7858ZM-3.56352 -20.1743C-3.07172 -20.7495 -2.69312 -21.4438 -2.45772 -22.2039C-2.22232 -22.964 -2.13812 -23.7693 -2.21332 -24.575C-2.28852 -25.3807 -2.52022 -26.1676 -2.88702 -26.8681C-3.25382 -27.5686 -3.74052 -28.1637 -4.33672 -28.694L-3.56352 -20.1743ZM-13.847 -29.5972C-14.0998 -30.254 -14.2529 -30.9595 -14.2982 -31.6853C-14.3435 -32.4111 -14.2806 -33.1487 -14.1143 -33.85C-13.948 -34.5513 -13.6826 -35.2031 -13.3323 -35.7803C-12.982 -36.3575 -12.555 -36.8524 -12.0792 -37.265L-13.847 -29.5972ZM-12.0792 -22.375C-12.555 -22.8508 -12.982 -23.3457 -13.3323 -23.9229C-13.6826 -24.5001 -13.948 -25.1519 -14.1143 -25.8532C-14.2806 -26.5545 -14.3435 -27.2921 -14.2982 -28.0179C-14.2529 -28.7437 -14.0998 -29.4492 -13.847 -30.106L-12.0792 -22.375ZM-4.33672 -33.5635C-3.74052 -34.094 -3.25382 -34.7891 -2.88702 -35.5896C-2.52022 -36.3901 -2.28852 -37.277 -2.21332 -38.1827C-2.13812 -39.0884 -2.22232 -39.9937 -2.45772 -40.8538C-2.69312 -41.6139 -3.07172 -42.3082 -3.56352 -42.875L-4.33672 -33.5635ZM4.2995 -20.678C4.8216 -20.0895 5.5085 -19.6535 6.2735 -19.423C7.0385 -19.1925 7.85225 -19.175 8.62595 -19.373C9.39965 -19.571 10.1039 -19.9765 10.686 -20.551C11.2681 -21.1255 11.7086 -21.8415 12.0715 -22.478L4.2995 -20.678ZM19.1743 -13.076C19.8411 -12.5082 20.6354 -12.1296 21.4955 -11.8942C22.3556 -11.6588 23.2609 -11.5746 24.1666 -11.6498C25.0723 -11.725 25.9592 -11.9567 26.7597 -12.3235C27.5602 -12.6903 28.2553 -13.177 28.7858 -13.7732L19.1743 -13.076ZM29.5972 -4.99225C30.254 -4.73945 30.9595 -4.58635 31.6853 -4.53105C32.4111 -4.47575 33.1487 -4.52265 33.85 -4.68895C34.5513 -4.85525 35.2031 -5.13095 35.7803 -5.49595C36.3575 -5.86095 36.8524 -6.31065 37.265 -6.82075L29.5972 -4.99225ZM37.265 -13.0792C36.8524 -13.555 36.3575 -13.982 35.7803 -14.3323C35.2031 -14.6826 34.5513 -14.948 33.85 -15.1143C33.1487 -15.2806 32.4111 -15.3435 31.6853 -15.2982C30.9595 -15.2529 30.254 -15.0998 29.5972 -14.847L37.265 -13.0792ZM28.7858 -22.478C28.2553 -21.8816 27.5602 -21.3949 26.7597 -21.0281C25.9592 -20.6613 25.0723 -20.4296 24.1666 -20.3544C23.2609 -20.2792 22.3556 -20.3634 21.4955 -20.5988C20.6354 -20.8342 19.8411 -21.2128 19.1743 -21.7046L28.7858 -22.478ZM12.0715 -28.7858C11.7086 -28.1493 11.2681 -27.4333 10.686 -26.8588C10.1039 -26.2843 9.39965 -25.8798 8.62595 -25.6818C7.85225 -25.4838 7.0385 -25.5013 6.2735 -25.7318C5.5085 -25.9623 4.8216 -26.3983 4.2995 -26.9868L12.0715 -28.7858ZM3.56352 -34.3367C3.07172 -34.8285 2.69312 -35.4228 2.45772 -36.0829C2.22232 -36.743 2.13812 -37.4483 2.21332 -38.154C2.28852 -38.8597 2.52022 -39.5466 2.88702 -40.1471C3.25382 -40.7476 3.74052 -41.2343 4.33672 -41.6305L3.56352 -34.3367ZM13.847 -44.008C14.0998 -43.3512 14.2529 -42.6457 14.2982 -41.92C14.3435 -41.1942 14.2806 -40.4566 14.1143 -39.7553C13.948 -39.054 13.6826 -38.4022 13.3323 -37.825C12.982 -37.2478 12.555 -36.7529 12.0792 -36.3402L13.847 -44.008ZM13.076 -20.1743C12.5842 -19.7001 12.2056 -19.0068 11.9702 -18.2477C11.7348 -17.4886 11.6506 -16.6843 11.7258 -15.8796C11.801 -15.0749 12.0327 -14.289 12.3995 -13.5895C12.7663 -12.89 13.253 -12.2957 13.6493 -11.7664L13.076 -20.1743ZM4.99225 -24.1438L4.99225 -14.847C5.65895 -14.502 6.36442 -14.3571 7.09025 -14.4196C7.81608 -14.4821 8.52042 -14.7356 9.141 -15.1633C9.76158 -15.591 10.284 -16.1824 10.6695 -16.8924C11.055 -17.6024 11.293 -18.4179 11.3655 -19.2478L4.99225 -24.1438Z" fill="#D2B4DE"/>
        <text text-anchor="middle" y="40">
            <tspan x="0" dy="1.2em" font-family="Lora, serif" font-size="48" font-weight="700" fill="#3A3541">Domain Valuation Genius</tspan>
            <tspan x="0" dy="1.4em" font-family="sans-serif" font-size="32" font-weight="500" fill="#3A3541">域名估價天才</tspan>
        </text>
    </g>

    <!-- Phone Mockup -->
    <g transform="translate(320, 320)" filter="url(#shadow)">
        <!-- Phone Body -->
        <rect x="0" y="0" width="440" height="680" rx="40" fill="#1b151d"/>
        <rect x="5" y="5" width="430" height="670" rx="35" fill="#fdf7f9"/>
        
        <!-- App Screen UI -->
        <g transform="translate(20, 20)">
            <!-- Header -->
            <text x="200" y="50" text-anchor="middle" font-family="Lora, serif" font-size="20" font-weight="700" fill="#3A3541">Domain Valuation Genius</text>
            <text x="200" y="70" text-anchor="middle" font-family="sans-serif" font-size="12" fill="#6b7280">域名估價天才</text>
            
            <text x="200" y="115" text-anchor="middle" font-family="Inter, sans-serif" font-size="14" fill="#6b7280">Real-Time, Data-Driven Domain Appraisal</text>

            <!-- Text Area -->
            <rect x="20" y="150" width="360" height="200" rx="8" fill="#F9FAFB" stroke="#e5e7eb" stroke-width="1"/>
            <text x="35" y="175" font-family="Inter, sans-serif" font-size="14" fill="#9ca3af">
                <tspan>genius.com</tspan>
                <tspan x="35" dy="1.5em">crypto.ai</tspan>
                <tspan x="35" dy="1.5em">design.studio</tspan>
                <tspan x="35" dy="1.5em">...</tspan>
            </text>

            <!-- Button -->
            <rect x="20" y="380" width="360" height="56" rx="8" fill="#D2B4DE"/>
            <text x="200" y="408" text-anchor="middle" font-family="Inter, sans-serif" font-size="16" font-weight="700" fill="#FFFFFF">Appraise Domains</text>
            <text x="200" y="426" text-anchor="middle" font-family="Inter, sans-serif" font-size="11" font-weight="400" fill="#FFFFFF">評估域名</text>

             <!-- Info Box -->
            <rect x="20" y="460" width="360" height="60" rx="8" fill="#D2B4DE" fill-opacity="0.05" stroke="#D2B4DE" stroke-opacity="0.2"/>
            <text x="200" y="490" text-anchor="middle" font-family="Inter, sans-serif" font-size="10" fill="#6b7280" style="white-space: pre-wrap;">
                <tspan x="200" dy="-0.5em">Our AI analyzes keyword value, market trends, and</tspan>
                <tspan x="200" dy="1.2em">comparable sales to provide accurate valuations.</tspan>
            </text>

        </g>
    </g>

    <!-- Bottom Tagline -->
    <text x="540" y="980" text-anchor="middle" font-family="Inter, sans-serif" font-size="28" font-weight="500" fill="#3A3541">
        Unlock the True Value of Your Domains.
    </text>

</svg>